<mxfile host="Electron" agent="Mozilla/5.0 (X11; Linux x86_64) AppleWebKit/537.36 (KHTML, like Gecko) draw.io/26.1.1 Chrome/132.0.6834.210 Electron/34.3.3 Safari/537.36" version="26.1.1" pages="2">
  <diagram name="add_flow" id="1kEg3vd063J7Q0rxQeos">
    <mxGraphModel dx="880" dy="535" grid="1" gridSize="10" guides="1" tooltips="1" connect="1" arrows="1" fold="1" page="1" pageScale="1" pageWidth="827" pageHeight="1169" math="0" shadow="0">
      <root>
        <mxCell id="0" />
        <mxCell id="1" parent="0" />
        <mxCell id="Ns7QrLunDvV93omZVoma-9" style="edgeStyle=orthogonalEdgeStyle;rounded=0;orthogonalLoop=1;jettySize=auto;html=1;exitX=0.5;exitY=1;exitDx=0;exitDy=0;entryX=0.5;entryY=0;entryDx=0;entryDy=0;" edge="1" parent="1" source="Ns7QrLunDvV93omZVoma-1" target="Ns7QrLunDvV93omZVoma-2">
          <mxGeometry relative="1" as="geometry" />
        </mxCell>
        <mxCell id="Ns7QrLunDvV93omZVoma-1" value="JS parser" style="rounded=0;whiteSpace=wrap;html=1;" vertex="1" parent="1">
          <mxGeometry x="280" y="120" width="120" height="60" as="geometry" />
        </mxCell>
        <mxCell id="Ns7QrLunDvV93omZVoma-6" style="edgeStyle=orthogonalEdgeStyle;rounded=0;orthogonalLoop=1;jettySize=auto;html=1;exitX=0.5;exitY=1;exitDx=0;exitDy=0;entryX=0.5;entryY=0;entryDx=0;entryDy=0;" edge="1" parent="1" source="Ns7QrLunDvV93omZVoma-2" target="Ns7QrLunDvV93omZVoma-4">
          <mxGeometry relative="1" as="geometry" />
        </mxCell>
        <mxCell id="Ns7QrLunDvV93omZVoma-2" value="JSON" style="rounded=0;whiteSpace=wrap;html=1;" vertex="1" parent="1">
          <mxGeometry x="280" y="240" width="120" height="60" as="geometry" />
        </mxCell>
        <mxCell id="aYr7RPw4S2dUm12xvjaE-2" value="" style="edgeStyle=orthogonalEdgeStyle;rounded=0;orthogonalLoop=1;jettySize=auto;html=1;" edge="1" parent="1" source="Ns7QrLunDvV93omZVoma-4" target="aYr7RPw4S2dUm12xvjaE-1">
          <mxGeometry relative="1" as="geometry" />
        </mxCell>
        <mxCell id="Ns7QrLunDvV93omZVoma-4" value="HtbResource" style="rounded=0;whiteSpace=wrap;html=1;" vertex="1" parent="1">
          <mxGeometry x="280" y="360" width="120" height="60" as="geometry" />
        </mxCell>
        <mxCell id="aYr7RPw4S2dUm12xvjaE-17" style="edgeStyle=orthogonalEdgeStyle;rounded=0;orthogonalLoop=1;jettySize=auto;html=1;entryX=0.5;entryY=0;entryDx=0;entryDy=0;" edge="1" parent="1" source="aYr7RPw4S2dUm12xvjaE-1" target="aYr7RPw4S2dUm12xvjaE-3">
          <mxGeometry relative="1" as="geometry" />
        </mxCell>
        <mxCell id="aYr7RPw4S2dUm12xvjaE-1" value="add_resource()" style="rounded=0;whiteSpace=wrap;html=1;" vertex="1" parent="1">
          <mxGeometry x="280" y="480" width="120" height="60" as="geometry" />
        </mxCell>
        <mxCell id="aYr7RPw4S2dUm12xvjaE-6" style="edgeStyle=orthogonalEdgeStyle;rounded=0;orthogonalLoop=1;jettySize=auto;html=1;exitX=1;exitY=0.5;exitDx=0;exitDy=0;entryX=0.5;entryY=0;entryDx=0;entryDy=0;" edge="1" parent="1" source="aYr7RPw4S2dUm12xvjaE-3" target="aYr7RPw4S2dUm12xvjaE-4">
          <mxGeometry relative="1" as="geometry" />
        </mxCell>
        <mxCell id="aYr7RPw4S2dUm12xvjaE-10" value="YES" style="edgeLabel;html=1;align=center;verticalAlign=middle;resizable=0;points=[];" vertex="1" connectable="0" parent="aYr7RPw4S2dUm12xvjaE-6">
          <mxGeometry x="0.1742" y="1" relative="1" as="geometry">
            <mxPoint as="offset" />
          </mxGeometry>
        </mxCell>
        <mxCell id="aYr7RPw4S2dUm12xvjaE-16" style="edgeStyle=orthogonalEdgeStyle;rounded=0;orthogonalLoop=1;jettySize=auto;html=1;exitX=0;exitY=0.5;exitDx=0;exitDy=0;entryX=0.5;entryY=0;entryDx=0;entryDy=0;" edge="1" parent="1" source="aYr7RPw4S2dUm12xvjaE-3" target="aYr7RPw4S2dUm12xvjaE-7">
          <mxGeometry relative="1" as="geometry">
            <Array as="points">
              <mxPoint x="250" y="625" />
              <mxPoint x="250" y="920" />
              <mxPoint x="390" y="920" />
            </Array>
          </mxGeometry>
        </mxCell>
        <mxCell id="aYr7RPw4S2dUm12xvjaE-18" value="NO" style="edgeLabel;html=1;align=center;verticalAlign=middle;resizable=0;points=[];" vertex="1" connectable="0" parent="aYr7RPw4S2dUm12xvjaE-16">
          <mxGeometry x="-0.3943" relative="1" as="geometry">
            <mxPoint as="offset" />
          </mxGeometry>
        </mxCell>
        <mxCell id="aYr7RPw4S2dUm12xvjaE-3" value="exists?" style="rhombus;whiteSpace=wrap;html=1;" vertex="1" parent="1">
          <mxGeometry x="300" y="585" width="80" height="80" as="geometry" />
        </mxCell>
        <mxCell id="aYr7RPw4S2dUm12xvjaE-8" value="" style="edgeStyle=orthogonalEdgeStyle;rounded=0;orthogonalLoop=1;jettySize=auto;html=1;" edge="1" parent="1" source="aYr7RPw4S2dUm12xvjaE-4" target="aYr7RPw4S2dUm12xvjaE-7">
          <mxGeometry relative="1" as="geometry">
            <Array as="points">
              <mxPoint x="600" y="700" />
              <mxPoint x="600" y="920" />
              <mxPoint x="390" y="920" />
            </Array>
          </mxGeometry>
        </mxCell>
        <mxCell id="aYr7RPw4S2dUm12xvjaE-9" value="YES" style="edgeLabel;html=1;align=center;verticalAlign=middle;resizable=0;points=[];" vertex="1" connectable="0" parent="aYr7RPw4S2dUm12xvjaE-8">
          <mxGeometry x="-0.2667" y="-1" relative="1" as="geometry">
            <mxPoint as="offset" />
          </mxGeometry>
        </mxCell>
        <mxCell id="aYr7RPw4S2dUm12xvjaE-14" style="edgeStyle=orthogonalEdgeStyle;rounded=0;orthogonalLoop=1;jettySize=auto;html=1;exitX=0;exitY=0.5;exitDx=0;exitDy=0;entryX=0.5;entryY=0;entryDx=0;entryDy=0;" edge="1" parent="1" source="aYr7RPw4S2dUm12xvjaE-4">
          <mxGeometry relative="1" as="geometry">
            <mxPoint x="430" y="800" as="targetPoint" />
          </mxGeometry>
        </mxCell>
        <mxCell id="aYr7RPw4S2dUm12xvjaE-15" value="NO" style="edgeLabel;html=1;align=center;verticalAlign=middle;resizable=0;points=[];" vertex="1" connectable="0" parent="aYr7RPw4S2dUm12xvjaE-14">
          <mxGeometry x="-0.2769" relative="1" as="geometry">
            <mxPoint as="offset" />
          </mxGeometry>
        </mxCell>
        <mxCell id="aYr7RPw4S2dUm12xvjaE-4" value="overwrite?" style="rhombus;whiteSpace=wrap;html=1;" vertex="1" parent="1">
          <mxGeometry x="460" y="660" width="80" height="80" as="geometry" />
        </mxCell>
        <mxCell id="aYr7RPw4S2dUm12xvjaE-7" value="Create fs" style="whiteSpace=wrap;html=1;" vertex="1" parent="1">
          <mxGeometry x="330" y="960" width="120" height="60" as="geometry" />
        </mxCell>
        <mxCell id="aYr7RPw4S2dUm12xvjaE-19" value="&lt;font style=&quot;font-size: 37px;&quot;&gt;X&lt;/font&gt;" style="ellipse;whiteSpace=wrap;html=1;aspect=fixed;" vertex="1" parent="1">
          <mxGeometry x="410" y="800" width="40" height="40" as="geometry" />
        </mxCell>
      </root>
    </mxGraphModel>
  </diagram>
  <diagram id="WdHdMRH1txEMEN1BzcWY" name="class-diagram">
    <mxGraphModel dx="1760" dy="1070" grid="1" gridSize="10" guides="1" tooltips="1" connect="1" arrows="1" fold="1" page="1" pageScale="1" pageWidth="827" pageHeight="1169" math="0" shadow="0">
      <root>
        <mxCell id="0" />
        <mxCell id="1" parent="0" />
        <mxCell id="n3agIeLzyx0UOAD5LdYY-2" value="&lt;b&gt;Info&lt;/b&gt;" style="swimlane;fontStyle=0;childLayout=stackLayout;horizontal=1;startSize=30;horizontalStack=0;resizeParent=1;resizeParentMax=0;resizeLast=0;collapsible=1;marginBottom=0;whiteSpace=wrap;html=1;" vertex="1" parent="1">
          <mxGeometry x="120" y="80" width="120" height="330" as="geometry" />
        </mxCell>
        <mxCell id="n3agIeLzyx0UOAD5LdYY-3" value="url: str" style="text;strokeColor=none;fillColor=none;align=left;verticalAlign=middle;spacingLeft=4;spacingRight=4;overflow=hidden;points=[[0,0.5],[1,0.5]];portConstraint=eastwest;rotatable=0;whiteSpace=wrap;html=1;" vertex="1" parent="n3agIeLzyx0UOAD5LdYY-2">
          <mxGeometry y="30" width="120" height="30" as="geometry" />
        </mxCell>
        <mxCell id="n3agIeLzyx0UOAD5LdYY-4" value="name: str" style="text;strokeColor=none;fillColor=none;align=left;verticalAlign=middle;spacingLeft=4;spacingRight=4;overflow=hidden;points=[[0,0.5],[1,0.5]];portConstraint=eastwest;rotatable=0;whiteSpace=wrap;html=1;" vertex="1" parent="n3agIeLzyx0UOAD5LdYY-2">
          <mxGeometry y="60" width="120" height="30" as="geometry" />
        </mxCell>
        <mxCell id="n3agIeLzyx0UOAD5LdYY-5" value="description: str" style="text;strokeColor=none;fillColor=none;align=left;verticalAlign=middle;spacingLeft=4;spacingRight=4;overflow=hidden;points=[[0,0.5],[1,0.5]];portConstraint=eastwest;rotatable=0;whiteSpace=wrap;html=1;" vertex="1" parent="n3agIeLzyx0UOAD5LdYY-2">
          <mxGeometry y="90" width="120" height="30" as="geometry" />
        </mxCell>
        <mxCell id="n3agIeLzyx0UOAD5LdYY-99" value="difficulty: str" style="text;strokeColor=none;fillColor=none;align=left;verticalAlign=middle;spacingLeft=4;spacingRight=4;overflow=hidden;points=[[0,0.5],[1,0.5]];portConstraint=eastwest;rotatable=0;whiteSpace=wrap;html=1;" vertex="1" parent="n3agIeLzyx0UOAD5LdYY-2">
          <mxGeometry y="120" width="120" height="30" as="geometry" />
        </mxCell>
        <mxCell id="n3agIeLzyx0UOAD5LdYY-100" value="status: str|float" style="text;strokeColor=none;fillColor=none;align=left;verticalAlign=middle;spacingLeft=4;spacingRight=4;overflow=hidden;points=[[0,0.5],[1,0.5]];portConstraint=eastwest;rotatable=0;whiteSpace=wrap;html=1;" vertex="1" parent="n3agIeLzyx0UOAD5LdYY-2">
          <mxGeometry y="150" width="120" height="30" as="geometry" />
        </mxCell>
        <mxCell id="n3agIeLzyx0UOAD5LdYY-101" value="logo: str" style="text;strokeColor=none;fillColor=none;align=left;verticalAlign=middle;spacingLeft=4;spacingRight=4;overflow=hidden;points=[[0,0.5],[1,0.5]];portConstraint=eastwest;rotatable=0;whiteSpace=wrap;html=1;" vertex="1" parent="n3agIeLzyx0UOAD5LdYY-2">
          <mxGeometry y="180" width="120" height="30" as="geometry" />
        </mxCell>
        <mxCell id="n3agIeLzyx0UOAD5LdYY-102" value="os: str" style="text;strokeColor=none;fillColor=none;align=left;verticalAlign=middle;spacingLeft=4;spacingRight=4;overflow=hidden;points=[[0,0.5],[1,0.5]];portConstraint=eastwest;rotatable=0;whiteSpace=wrap;html=1;" vertex="1" parent="n3agIeLzyx0UOAD5LdYY-2">
          <mxGeometry y="210" width="120" height="30" as="geometry" />
        </mxCell>
        <mxCell id="n3agIeLzyx0UOAD5LdYY-103" value="authors: list[str[" style="text;strokeColor=none;fillColor=none;align=left;verticalAlign=middle;spacingLeft=4;spacingRight=4;overflow=hidden;points=[[0,0.5],[1,0.5]];portConstraint=eastwest;rotatable=0;whiteSpace=wrap;html=1;" vertex="1" parent="n3agIeLzyx0UOAD5LdYY-2">
          <mxGeometry y="240" width="120" height="30" as="geometry" />
        </mxCell>
        <mxCell id="n3agIeLzyx0UOAD5LdYY-104" value="tags: list[ßtr]" style="text;strokeColor=none;fillColor=none;align=left;verticalAlign=middle;spacingLeft=4;spacingRight=4;overflow=hidden;points=[[0,0.5],[1,0.5]];portConstraint=eastwest;rotatable=0;whiteSpace=wrap;html=1;" vertex="1" parent="n3agIeLzyx0UOAD5LdYY-2">
          <mxGeometry y="270" width="120" height="30" as="geometry" />
        </mxCell>
        <mxCell id="n3agIeLzyx0UOAD5LdYY-105" value="points: int" style="text;strokeColor=none;fillColor=none;align=left;verticalAlign=middle;spacingLeft=4;spacingRight=4;overflow=hidden;points=[[0,0.5],[1,0.5]];portConstraint=eastwest;rotatable=0;whiteSpace=wrap;html=1;" vertex="1" parent="n3agIeLzyx0UOAD5LdYY-2">
          <mxGeometry y="300" width="120" height="30" as="geometry" />
        </mxCell>
        <mxCell id="n3agIeLzyx0UOAD5LdYY-6" value="&lt;b&gt;About&lt;/b&gt;" style="swimlane;fontStyle=0;childLayout=stackLayout;horizontal=1;startSize=30;horizontalStack=0;resizeParent=1;resizeParentMax=0;resizeLast=0;collapsible=1;marginBottom=0;whiteSpace=wrap;html=1;" vertex="1" parent="1">
          <mxGeometry x="480" y="80" width="120" height="150" as="geometry" />
        </mxCell>
        <mxCell id="n3agIeLzyx0UOAD5LdYY-7" value="release_date: iso_d" style="text;strokeColor=none;fillColor=none;align=left;verticalAlign=middle;spacingLeft=4;spacingRight=4;overflow=hidden;points=[[0,0.5],[1,0.5]];portConstraint=eastwest;rotatable=0;whiteSpace=wrap;html=1;" vertex="1" parent="n3agIeLzyx0UOAD5LdYY-6">
          <mxGeometry y="30" width="120" height="30" as="geometry" />
        </mxCell>
        <mxCell id="n3agIeLzyx0UOAD5LdYY-8" value="rating: float" style="text;strokeColor=none;fillColor=none;align=left;verticalAlign=middle;spacingLeft=4;spacingRight=4;overflow=hidden;points=[[0,0.5],[1,0.5]];portConstraint=eastwest;rotatable=0;whiteSpace=wrap;html=1;" vertex="1" parent="n3agIeLzyx0UOAD5LdYY-6">
          <mxGeometry y="60" width="120" height="30" as="geometry" />
        </mxCell>
        <mxCell id="n3agIeLzyx0UOAD5LdYY-9" value="academy_modules: list[HtbModules]" style="text;strokeColor=none;fillColor=none;align=left;verticalAlign=middle;spacingLeft=4;spacingRight=4;overflow=hidden;points=[[0,0.5],[1,0.5]];portConstraint=eastwest;rotatable=0;whiteSpace=wrap;html=1;" vertex="1" parent="n3agIeLzyx0UOAD5LdYY-6">
          <mxGeometry y="90" width="120" height="30" as="geometry" />
        </mxCell>
        <mxCell id="n3agIeLzyx0UOAD5LdYY-98" value="targets: list[str]" style="text;strokeColor=none;fillColor=none;align=left;verticalAlign=middle;spacingLeft=4;spacingRight=4;overflow=hidden;points=[[0,0.5],[1,0.5]];portConstraint=eastwest;rotatable=0;whiteSpace=wrap;html=1;" vertex="1" parent="n3agIeLzyx0UOAD5LdYY-6">
          <mxGeometry y="120" width="120" height="30" as="geometry" />
        </mxCell>
        <mxCell id="n3agIeLzyx0UOAD5LdYY-10" value="&lt;b&gt;Task&lt;/b&gt;" style="swimlane;fontStyle=0;childLayout=stackLayout;horizontal=1;startSize=30;horizontalStack=0;resizeParent=1;resizeParentMax=0;resizeLast=0;collapsible=1;marginBottom=0;whiteSpace=wrap;html=1;" vertex="1" parent="1">
          <mxGeometry x="655" y="80" width="120" height="150" as="geometry" />
        </mxCell>
        <mxCell id="n3agIeLzyx0UOAD5LdYY-11" value="number: int" style="text;strokeColor=none;fillColor=none;align=left;verticalAlign=middle;spacingLeft=4;spacingRight=4;overflow=hidden;points=[[0,0.5],[1,0.5]];portConstraint=eastwest;rotatable=0;whiteSpace=wrap;html=1;" vertex="1" parent="n3agIeLzyx0UOAD5LdYY-10">
          <mxGeometry y="30" width="120" height="30" as="geometry" />
        </mxCell>
        <mxCell id="n3agIeLzyx0UOAD5LdYY-12" value="text: str" style="text;strokeColor=none;fillColor=none;align=left;verticalAlign=middle;spacingLeft=4;spacingRight=4;overflow=hidden;points=[[0,0.5],[1,0.5]];portConstraint=eastwest;rotatable=0;whiteSpace=wrap;html=1;" vertex="1" parent="n3agIeLzyx0UOAD5LdYY-10">
          <mxGeometry y="60" width="120" height="30" as="geometry" />
        </mxCell>
        <mxCell id="n3agIeLzyx0UOAD5LdYY-13" value="answer: str" style="text;strokeColor=none;fillColor=none;align=left;verticalAlign=middle;spacingLeft=4;spacingRight=4;overflow=hidden;points=[[0,0.5],[1,0.5]];portConstraint=eastwest;rotatable=0;whiteSpace=wrap;html=1;" vertex="1" parent="n3agIeLzyx0UOAD5LdYY-10">
          <mxGeometry y="90" width="120" height="30" as="geometry" />
        </mxCell>
        <mxCell id="n3agIeLzyx0UOAD5LdYY-97" value="points: int" style="text;strokeColor=none;fillColor=none;align=left;verticalAlign=middle;spacingLeft=4;spacingRight=4;overflow=hidden;points=[[0,0.5],[1,0.5]];portConstraint=eastwest;rotatable=0;whiteSpace=wrap;html=1;" vertex="1" parent="n3agIeLzyx0UOAD5LdYY-10">
          <mxGeometry y="120" width="120" height="30" as="geometry" />
        </mxCell>
        <mxCell id="n3agIeLzyx0UOAD5LdYY-75" style="edgeStyle=orthogonalEdgeStyle;rounded=0;orthogonalLoop=1;jettySize=auto;html=1;entryX=0.5;entryY=0;entryDx=0;entryDy=0;startArrow=block;startFill=1;endArrow=none;strokeWidth=2;" edge="1" parent="1" source="n3agIeLzyx0UOAD5LdYY-14" target="n3agIeLzyx0UOAD5LdYY-18">
          <mxGeometry relative="1" as="geometry">
            <Array as="points">
              <mxPoint x="360" y="440" />
              <mxPoint x="160" y="440" />
            </Array>
          </mxGeometry>
        </mxCell>
        <mxCell id="n3agIeLzyx0UOAD5LdYY-77" style="edgeStyle=orthogonalEdgeStyle;rounded=0;orthogonalLoop=1;jettySize=auto;html=1;entryX=0.5;entryY=0;entryDx=0;entryDy=0;startArrow=block;startFill=0;endArrow=none;strokeWidth=2;" edge="1" parent="1" source="n3agIeLzyx0UOAD5LdYY-14" target="n3agIeLzyx0UOAD5LdYY-22">
          <mxGeometry relative="1" as="geometry" />
        </mxCell>
        <mxCell id="n3agIeLzyx0UOAD5LdYY-78" style="edgeStyle=orthogonalEdgeStyle;rounded=0;orthogonalLoop=1;jettySize=auto;html=1;entryX=0.5;entryY=0;entryDx=0;entryDy=0;startArrow=block;startFill=0;endArrow=none;strokeWidth=2;" edge="1" parent="1" source="n3agIeLzyx0UOAD5LdYY-14" target="n3agIeLzyx0UOAD5LdYY-34">
          <mxGeometry relative="1" as="geometry">
            <Array as="points">
              <mxPoint x="360" y="440" />
              <mxPoint x="662" y="440" />
            </Array>
          </mxGeometry>
        </mxCell>
        <mxCell id="n3agIeLzyx0UOAD5LdYY-14" value="&lt;b&gt;HtbResource&lt;/b&gt;" style="swimlane;fontStyle=0;childLayout=stackLayout;horizontal=1;startSize=30;horizontalStack=0;resizeParent=1;resizeParentMax=0;resizeLast=0;collapsible=1;marginBottom=0;whiteSpace=wrap;html=1;" vertex="1" parent="1">
          <mxGeometry x="300" y="280" width="120" height="120" as="geometry" />
        </mxCell>
        <mxCell id="n3agIeLzyx0UOAD5LdYY-15" value="type: str" style="text;strokeColor=none;fillColor=none;align=left;verticalAlign=middle;spacingLeft=4;spacingRight=4;overflow=hidden;points=[[0,0.5],[1,0.5]];portConstraint=eastwest;rotatable=0;whiteSpace=wrap;html=1;" vertex="1" parent="n3agIeLzyx0UOAD5LdYY-14">
          <mxGeometry y="30" width="120" height="30" as="geometry" />
        </mxCell>
        <mxCell id="n3agIeLzyx0UOAD5LdYY-16" value="info: Info" style="text;strokeColor=none;fillColor=none;align=left;verticalAlign=middle;spacingLeft=4;spacingRight=4;overflow=hidden;points=[[0,0.5],[1,0.5]];portConstraint=eastwest;rotatable=0;whiteSpace=wrap;html=1;" vertex="1" parent="n3agIeLzyx0UOAD5LdYY-14">
          <mxGeometry y="60" width="120" height="30" as="geometry" />
        </mxCell>
        <mxCell id="n3agIeLzyx0UOAD5LdYY-17" value="about: About" style="text;strokeColor=none;fillColor=none;align=left;verticalAlign=middle;spacingLeft=4;spacingRight=4;overflow=hidden;points=[[0,0.5],[1,0.5]];portConstraint=eastwest;rotatable=0;whiteSpace=wrap;html=1;" vertex="1" parent="n3agIeLzyx0UOAD5LdYY-14">
          <mxGeometry y="90" width="120" height="30" as="geometry" />
        </mxCell>
        <mxCell id="n3agIeLzyx0UOAD5LdYY-18" value="&lt;b&gt;HtbModule&lt;/b&gt;" style="swimlane;fontStyle=0;childLayout=stackLayout;horizontal=1;startSize=30;horizontalStack=0;resizeParent=1;resizeParentMax=0;resizeLast=0;collapsible=1;marginBottom=0;whiteSpace=wrap;html=1;" vertex="1" parent="1">
          <mxGeometry x="100" y="480" width="120" height="180" as="geometry" />
        </mxCell>
        <mxCell id="n3agIeLzyx0UOAD5LdYY-19" value="tier: str" style="text;strokeColor=none;fillColor=none;align=left;verticalAlign=middle;spacingLeft=4;spacingRight=4;overflow=hidden;points=[[0,0.5],[1,0.5]];portConstraint=eastwest;rotatable=0;whiteSpace=wrap;html=1;" vertex="1" parent="n3agIeLzyx0UOAD5LdYY-18">
          <mxGeometry y="30" width="120" height="30" as="geometry" />
        </mxCell>
        <mxCell id="n3agIeLzyx0UOAD5LdYY-20" value="cost: int" style="text;strokeColor=none;fillColor=none;align=left;verticalAlign=middle;spacingLeft=4;spacingRight=4;overflow=hidden;points=[[0,0.5],[1,0.5]];portConstraint=eastwest;rotatable=0;whiteSpace=wrap;html=1;" vertex="1" parent="n3agIeLzyx0UOAD5LdYY-18">
          <mxGeometry y="60" width="120" height="30" as="geometry" />
        </mxCell>
        <mxCell id="n3agIeLzyx0UOAD5LdYY-21" value="duration: str" style="text;strokeColor=none;fillColor=none;align=left;verticalAlign=middle;spacingLeft=4;spacingRight=4;overflow=hidden;points=[[0,0.5],[1,0.5]];portConstraint=eastwest;rotatable=0;whiteSpace=wrap;html=1;" vertex="1" parent="n3agIeLzyx0UOAD5LdYY-18">
          <mxGeometry y="90" width="120" height="30" as="geometry" />
        </mxCell>
        <mxCell id="n3agIeLzyx0UOAD5LdYY-106" value="summary: str" style="text;strokeColor=none;fillColor=none;align=left;verticalAlign=middle;spacingLeft=4;spacingRight=4;overflow=hidden;points=[[0,0.5],[1,0.5]];portConstraint=eastwest;rotatable=0;whiteSpace=wrap;html=1;" vertex="1" parent="n3agIeLzyx0UOAD5LdYY-18">
          <mxGeometry y="120" width="120" height="30" as="geometry" />
        </mxCell>
        <mxCell id="n3agIeLzyx0UOAD5LdYY-107" value="sections: list[str]" style="text;strokeColor=none;fillColor=none;align=left;verticalAlign=middle;spacingLeft=4;spacingRight=4;overflow=hidden;points=[[0,0.5],[1,0.5]];portConstraint=eastwest;rotatable=0;whiteSpace=wrap;html=1;" vertex="1" parent="n3agIeLzyx0UOAD5LdYY-18">
          <mxGeometry y="150" width="120" height="30" as="geometry" />
        </mxCell>
        <mxCell id="n3agIeLzyx0UOAD5LdYY-109" style="edgeStyle=orthogonalEdgeStyle;rounded=0;orthogonalLoop=1;jettySize=auto;html=1;entryX=0.5;entryY=0;entryDx=0;entryDy=0;endArrow=none;startFill=1;startArrow=block;strokeWidth=2;" edge="1" parent="1" source="n3agIeLzyx0UOAD5LdYY-22" target="n3agIeLzyx0UOAD5LdYY-30">
          <mxGeometry relative="1" as="geometry" />
        </mxCell>
        <mxCell id="n3agIeLzyx0UOAD5LdYY-110" style="edgeStyle=orthogonalEdgeStyle;rounded=0;orthogonalLoop=1;jettySize=auto;html=1;entryX=0.5;entryY=0;entryDx=0;entryDy=0;endArrow=none;startFill=0;strokeWidth=2;" edge="1" parent="1" source="n3agIeLzyx0UOAD5LdYY-22" target="n3agIeLzyx0UOAD5LdYY-26">
          <mxGeometry relative="1" as="geometry">
            <Array as="points">
              <mxPoint x="360" y="700" />
              <mxPoint x="160" y="700" />
            </Array>
          </mxGeometry>
        </mxCell>
        <mxCell id="n3agIeLzyx0UOAD5LdYY-22" value="&lt;b&gt;HtbPath&lt;/b&gt;" style="swimlane;fontStyle=0;childLayout=stackLayout;horizontal=1;startSize=30;horizontalStack=0;resizeParent=1;resizeParentMax=0;resizeLast=0;collapsible=1;marginBottom=0;whiteSpace=wrap;html=1;" vertex="1" parent="1">
          <mxGeometry x="300" y="480" width="120" height="150" as="geometry" />
        </mxCell>
        <mxCell id="n3agIeLzyx0UOAD5LdYY-23" value="cost: int" style="text;strokeColor=none;fillColor=none;align=left;verticalAlign=middle;spacingLeft=4;spacingRight=4;overflow=hidden;points=[[0,0.5],[1,0.5]];portConstraint=eastwest;rotatable=0;whiteSpace=wrap;html=1;" vertex="1" parent="n3agIeLzyx0UOAD5LdYY-22">
          <mxGeometry y="30" width="120" height="30" as="geometry" />
        </mxCell>
        <mxCell id="n3agIeLzyx0UOAD5LdYY-24" value="duration: str" style="text;strokeColor=none;fillColor=none;align=left;verticalAlign=middle;spacingLeft=4;spacingRight=4;overflow=hidden;points=[[0,0.5],[1,0.5]];portConstraint=eastwest;rotatable=0;whiteSpace=wrap;html=1;" vertex="1" parent="n3agIeLzyx0UOAD5LdYY-22">
          <mxGeometry y="60" width="120" height="30" as="geometry" />
        </mxCell>
        <mxCell id="n3agIeLzyx0UOAD5LdYY-25" value="sections: list[str]" style="text;strokeColor=none;fillColor=none;align=left;verticalAlign=middle;spacingLeft=4;spacingRight=4;overflow=hidden;points=[[0,0.5],[1,0.5]];portConstraint=eastwest;rotatable=0;whiteSpace=wrap;html=1;" vertex="1" parent="n3agIeLzyx0UOAD5LdYY-22">
          <mxGeometry y="90" width="120" height="30" as="geometry" />
        </mxCell>
        <mxCell id="n3agIeLzyx0UOAD5LdYY-108" value="modules: list[HtbModules]" style="text;strokeColor=none;fillColor=none;align=left;verticalAlign=middle;spacingLeft=4;spacingRight=4;overflow=hidden;points=[[0,0.5],[1,0.5]];portConstraint=eastwest;rotatable=0;whiteSpace=wrap;html=1;" vertex="1" parent="n3agIeLzyx0UOAD5LdYY-22">
          <mxGeometry y="120" width="120" height="30" as="geometry" />
        </mxCell>
        <mxCell id="n3agIeLzyx0UOAD5LdYY-26" value="&lt;b&gt;SkillPath&lt;/b&gt;" style="swimlane;fontStyle=0;childLayout=stackLayout;horizontal=1;startSize=30;horizontalStack=0;resizeParent=1;resizeParentMax=0;resizeLast=0;collapsible=1;marginBottom=0;whiteSpace=wrap;html=1;" vertex="1" parent="1">
          <mxGeometry x="100" y="750" width="120" height="60" as="geometry" />
        </mxCell>
        <mxCell id="n3agIeLzyx0UOAD5LdYY-27" value="type = spt" style="text;strokeColor=none;fillColor=none;align=left;verticalAlign=middle;spacingLeft=4;spacingRight=4;overflow=hidden;points=[[0,0.5],[1,0.5]];portConstraint=eastwest;rotatable=0;whiteSpace=wrap;html=1;" vertex="1" parent="n3agIeLzyx0UOAD5LdYY-26">
          <mxGeometry y="30" width="120" height="30" as="geometry" />
        </mxCell>
        <mxCell id="n3agIeLzyx0UOAD5LdYY-30" value="&lt;b&gt;JobRolePath&lt;/b&gt;" style="swimlane;fontStyle=0;childLayout=stackLayout;horizontal=1;startSize=30;horizontalStack=0;resizeParent=1;resizeParentMax=0;resizeLast=0;collapsible=1;marginBottom=0;whiteSpace=wrap;html=1;" vertex="1" parent="1">
          <mxGeometry x="300" y="750" width="120" height="60" as="geometry" />
        </mxCell>
        <mxCell id="n3agIeLzyx0UOAD5LdYY-31" value="type = jpt" style="text;strokeColor=none;fillColor=none;align=left;verticalAlign=middle;spacingLeft=4;spacingRight=4;overflow=hidden;points=[[0,0.5],[1,0.5]];portConstraint=eastwest;rotatable=0;whiteSpace=wrap;html=1;" vertex="1" parent="n3agIeLzyx0UOAD5LdYY-30">
          <mxGeometry y="30" width="120" height="30" as="geometry" />
        </mxCell>
        <mxCell id="n3agIeLzyx0UOAD5LdYY-86" style="edgeStyle=orthogonalEdgeStyle;rounded=0;orthogonalLoop=1;jettySize=auto;html=1;entryX=0.5;entryY=0;entryDx=0;entryDy=0;endArrow=none;startFill=1;startArrow=block;strokeWidth=2;" edge="1" parent="1" source="n3agIeLzyx0UOAD5LdYY-34" target="n3agIeLzyx0UOAD5LdYY-38">
          <mxGeometry relative="1" as="geometry">
            <Array as="points">
              <mxPoint x="662" y="920" />
              <mxPoint x="560" y="920" />
            </Array>
          </mxGeometry>
        </mxCell>
        <mxCell id="n3agIeLzyx0UOAD5LdYY-87" style="edgeStyle=orthogonalEdgeStyle;rounded=0;orthogonalLoop=1;jettySize=auto;html=1;entryX=0.5;entryY=0;entryDx=0;entryDy=0;endArrow=none;startFill=0;startArrow=none;strokeWidth=2;" edge="1" parent="1" source="n3agIeLzyx0UOAD5LdYY-34" target="n3agIeLzyx0UOAD5LdYY-42">
          <mxGeometry relative="1" as="geometry">
            <Array as="points">
              <mxPoint x="660" y="920" />
              <mxPoint x="360" y="920" />
            </Array>
          </mxGeometry>
        </mxCell>
        <mxCell id="n3agIeLzyx0UOAD5LdYY-88" style="edgeStyle=orthogonalEdgeStyle;rounded=0;orthogonalLoop=1;jettySize=auto;html=1;entryX=0.5;entryY=0;entryDx=0;entryDy=0;startArrow=none;startFill=0;endArrow=none;strokeWidth=2;" edge="1" parent="1" source="n3agIeLzyx0UOAD5LdYY-34" target="n3agIeLzyx0UOAD5LdYY-46">
          <mxGeometry relative="1" as="geometry">
            <Array as="points">
              <mxPoint x="660" y="920" />
              <mxPoint x="160" y="920" />
            </Array>
          </mxGeometry>
        </mxCell>
        <mxCell id="n3agIeLzyx0UOAD5LdYY-90" style="edgeStyle=orthogonalEdgeStyle;rounded=0;orthogonalLoop=1;jettySize=auto;html=1;entryX=0.5;entryY=0;entryDx=0;entryDy=0;endArrow=none;startFill=0;" edge="1" parent="1" source="n3agIeLzyx0UOAD5LdYY-34" target="n3agIeLzyx0UOAD5LdYY-58">
          <mxGeometry relative="1" as="geometry">
            <Array as="points">
              <mxPoint x="662" y="1090" />
              <mxPoint x="560" y="1090" />
            </Array>
          </mxGeometry>
        </mxCell>
        <mxCell id="n3agIeLzyx0UOAD5LdYY-91" style="edgeStyle=orthogonalEdgeStyle;rounded=0;orthogonalLoop=1;jettySize=auto;html=1;entryX=0.5;entryY=0;entryDx=0;entryDy=0;endArrow=none;startFill=0;" edge="1" parent="1" source="n3agIeLzyx0UOAD5LdYY-34" target="n3agIeLzyx0UOAD5LdYY-54">
          <mxGeometry relative="1" as="geometry">
            <Array as="points">
              <mxPoint x="660" y="1090" />
              <mxPoint x="360" y="1090" />
            </Array>
          </mxGeometry>
        </mxCell>
        <mxCell id="n3agIeLzyx0UOAD5LdYY-92" style="edgeStyle=orthogonalEdgeStyle;rounded=0;orthogonalLoop=1;jettySize=auto;html=1;entryX=0.5;entryY=0;entryDx=0;entryDy=0;endArrow=none;startFill=0;strokeWidth=2;" edge="1" parent="1" source="n3agIeLzyx0UOAD5LdYY-34" target="n3agIeLzyx0UOAD5LdYY-50">
          <mxGeometry relative="1" as="geometry">
            <Array as="points">
              <mxPoint x="662" y="1090" />
              <mxPoint x="160" y="1090" />
            </Array>
          </mxGeometry>
        </mxCell>
        <mxCell id="n3agIeLzyx0UOAD5LdYY-93" style="edgeStyle=orthogonalEdgeStyle;rounded=0;orthogonalLoop=1;jettySize=auto;html=1;entryX=0.5;entryY=0;entryDx=0;entryDy=0;endArrow=none;startFill=0;strokeWidth=2;" edge="1" parent="1" source="n3agIeLzyx0UOAD5LdYY-34" target="n3agIeLzyx0UOAD5LdYY-70">
          <mxGeometry relative="1" as="geometry">
            <Array as="points">
              <mxPoint x="660" y="1250" />
              <mxPoint x="560" y="1250" />
            </Array>
          </mxGeometry>
        </mxCell>
        <mxCell id="n3agIeLzyx0UOAD5LdYY-94" style="edgeStyle=orthogonalEdgeStyle;rounded=0;orthogonalLoop=1;jettySize=auto;html=1;entryX=0.5;entryY=0;entryDx=0;entryDy=0;endArrow=none;startFill=0;strokeWidth=2;" edge="1" parent="1" source="n3agIeLzyx0UOAD5LdYY-34" target="n3agIeLzyx0UOAD5LdYY-66">
          <mxGeometry relative="1" as="geometry">
            <Array as="points">
              <mxPoint x="660" y="1250" />
              <mxPoint x="360" y="1250" />
            </Array>
          </mxGeometry>
        </mxCell>
        <mxCell id="n3agIeLzyx0UOAD5LdYY-34" value="&lt;b&gt;HtbMachine&lt;/b&gt;" style="swimlane;fontStyle=0;childLayout=stackLayout;horizontal=1;startSize=30;horizontalStack=0;resizeParent=1;resizeParentMax=0;resizeLast=0;collapsible=1;marginBottom=0;whiteSpace=wrap;html=1;" vertex="1" parent="1">
          <mxGeometry x="601" y="480" width="120" height="60" as="geometry" />
        </mxCell>
        <mxCell id="n3agIeLzyx0UOAD5LdYY-35" value="tasks: list[Task]" style="text;strokeColor=none;fillColor=none;align=left;verticalAlign=middle;spacingLeft=4;spacingRight=4;overflow=hidden;points=[[0,0.5],[1,0.5]];portConstraint=eastwest;rotatable=0;whiteSpace=wrap;html=1;" vertex="1" parent="n3agIeLzyx0UOAD5LdYY-34">
          <mxGeometry y="30" width="120" height="30" as="geometry" />
        </mxCell>
        <mxCell id="n3agIeLzyx0UOAD5LdYY-38" value="&lt;b&gt;ChallengeMachine&lt;/b&gt;" style="swimlane;fontStyle=0;childLayout=stackLayout;horizontal=1;startSize=30;horizontalStack=0;resizeParent=1;resizeParentMax=0;resizeLast=0;collapsible=1;marginBottom=0;whiteSpace=wrap;html=1;" vertex="1" parent="1">
          <mxGeometry x="500" y="950" width="120" height="60" as="geometry" />
        </mxCell>
        <mxCell id="n3agIeLzyx0UOAD5LdYY-39" value="type = chl" style="text;strokeColor=none;fillColor=none;align=left;verticalAlign=middle;spacingLeft=4;spacingRight=4;overflow=hidden;points=[[0,0.5],[1,0.5]];portConstraint=eastwest;rotatable=0;whiteSpace=wrap;html=1;" vertex="1" parent="n3agIeLzyx0UOAD5LdYY-38">
          <mxGeometry y="30" width="120" height="30" as="geometry" />
        </mxCell>
        <mxCell id="n3agIeLzyx0UOAD5LdYY-42" value="&lt;b&gt;LabMachine&lt;/b&gt;" style="swimlane;fontStyle=0;childLayout=stackLayout;horizontal=1;startSize=30;horizontalStack=0;resizeParent=1;resizeParentMax=0;resizeLast=0;collapsible=1;marginBottom=0;whiteSpace=wrap;html=1;" vertex="1" parent="1">
          <mxGeometry x="300" y="950" width="120" height="60" as="geometry" />
        </mxCell>
        <mxCell id="n3agIeLzyx0UOAD5LdYY-43" value="type = mch" style="text;strokeColor=none;fillColor=none;align=left;verticalAlign=middle;spacingLeft=4;spacingRight=4;overflow=hidden;points=[[0,0.5],[1,0.5]];portConstraint=eastwest;rotatable=0;whiteSpace=wrap;html=1;" vertex="1" parent="n3agIeLzyx0UOAD5LdYY-42">
          <mxGeometry y="30" width="120" height="30" as="geometry" />
        </mxCell>
        <mxCell id="n3agIeLzyx0UOAD5LdYY-46" value="&lt;font style=&quot;font-size: 11px;&quot;&gt;&lt;b&gt;StartingPointMachine&lt;/b&gt;&lt;/font&gt;" style="swimlane;fontStyle=0;childLayout=stackLayout;horizontal=1;startSize=30;horizontalStack=0;resizeParent=1;resizeParentMax=0;resizeLast=0;collapsible=1;marginBottom=0;whiteSpace=wrap;html=1;" vertex="1" parent="1">
          <mxGeometry x="100" y="950" width="120" height="60" as="geometry" />
        </mxCell>
        <mxCell id="n3agIeLzyx0UOAD5LdYY-47" value="type = stp" style="text;strokeColor=none;fillColor=none;align=left;verticalAlign=middle;spacingLeft=4;spacingRight=4;overflow=hidden;points=[[0,0.5],[1,0.5]];portConstraint=eastwest;rotatable=0;whiteSpace=wrap;html=1;" vertex="1" parent="n3agIeLzyx0UOAD5LdYY-46">
          <mxGeometry y="30" width="120" height="30" as="geometry" />
        </mxCell>
        <mxCell id="n3agIeLzyx0UOAD5LdYY-50" value="&lt;b&gt;SherlockMachine&lt;/b&gt;" style="swimlane;fontStyle=0;childLayout=stackLayout;horizontal=1;startSize=30;horizontalStack=0;resizeParent=1;resizeParentMax=0;resizeLast=0;collapsible=1;marginBottom=0;whiteSpace=wrap;html=1;" vertex="1" parent="1">
          <mxGeometry x="100" y="1110" width="120" height="60" as="geometry" />
        </mxCell>
        <mxCell id="n3agIeLzyx0UOAD5LdYY-51" value="type = shr" style="text;strokeColor=none;fillColor=none;align=left;verticalAlign=middle;spacingLeft=4;spacingRight=4;overflow=hidden;points=[[0,0.5],[1,0.5]];portConstraint=eastwest;rotatable=0;whiteSpace=wrap;html=1;" vertex="1" parent="n3agIeLzyx0UOAD5LdYY-50">
          <mxGeometry y="30" width="120" height="30" as="geometry" />
        </mxCell>
        <mxCell id="n3agIeLzyx0UOAD5LdYY-54" value="&lt;b&gt;MachineTrack&lt;/b&gt;" style="swimlane;fontStyle=0;childLayout=stackLayout;horizontal=1;startSize=30;horizontalStack=0;resizeParent=1;resizeParentMax=0;resizeLast=0;collapsible=1;marginBottom=0;whiteSpace=wrap;html=1;" vertex="1" parent="1">
          <mxGeometry x="300" y="1110" width="120" height="60" as="geometry" />
        </mxCell>
        <mxCell id="n3agIeLzyx0UOAD5LdYY-55" value="type = trk" style="text;strokeColor=none;fillColor=none;align=left;verticalAlign=middle;spacingLeft=4;spacingRight=4;overflow=hidden;points=[[0,0.5],[1,0.5]];portConstraint=eastwest;rotatable=0;whiteSpace=wrap;html=1;" vertex="1" parent="n3agIeLzyx0UOAD5LdYY-54">
          <mxGeometry y="30" width="120" height="30" as="geometry" />
        </mxCell>
        <mxCell id="n3agIeLzyx0UOAD5LdYY-58" value="&lt;b&gt;ProLabMachine&lt;/b&gt;" style="swimlane;fontStyle=0;childLayout=stackLayout;horizontal=1;startSize=30;horizontalStack=0;resizeParent=1;resizeParentMax=0;resizeLast=0;collapsible=1;marginBottom=0;whiteSpace=wrap;html=1;" vertex="1" parent="1">
          <mxGeometry x="500" y="1110" width="120" height="60" as="geometry" />
        </mxCell>
        <mxCell id="n3agIeLzyx0UOAD5LdYY-59" value="type = lab" style="text;strokeColor=none;fillColor=none;align=left;verticalAlign=middle;spacingLeft=4;spacingRight=4;overflow=hidden;points=[[0,0.5],[1,0.5]];portConstraint=eastwest;rotatable=0;whiteSpace=wrap;html=1;" vertex="1" parent="n3agIeLzyx0UOAD5LdYY-58">
          <mxGeometry y="30" width="120" height="30" as="geometry" />
        </mxCell>
        <mxCell id="n3agIeLzyx0UOAD5LdYY-66" value="&lt;b&gt;MachineFortress&lt;/b&gt;" style="swimlane;fontStyle=0;childLayout=stackLayout;horizontal=1;startSize=30;horizontalStack=0;resizeParent=1;resizeParentMax=0;resizeLast=0;collapsible=1;marginBottom=0;whiteSpace=wrap;html=1;" vertex="1" parent="1">
          <mxGeometry x="300" y="1270" width="120" height="60" as="geometry" />
        </mxCell>
        <mxCell id="n3agIeLzyx0UOAD5LdYY-67" value="type = ftr" style="text;strokeColor=none;fillColor=none;align=left;verticalAlign=middle;spacingLeft=4;spacingRight=4;overflow=hidden;points=[[0,0.5],[1,0.5]];portConstraint=eastwest;rotatable=0;whiteSpace=wrap;html=1;" vertex="1" parent="n3agIeLzyx0UOAD5LdYY-66">
          <mxGeometry y="30" width="120" height="30" as="geometry" />
        </mxCell>
        <mxCell id="n3agIeLzyx0UOAD5LdYY-70" value="&lt;font&gt;&lt;b style=&quot;&quot;&gt;MachineBattlegrounds&lt;/b&gt;&lt;/font&gt;" style="swimlane;fontStyle=0;childLayout=stackLayout;horizontal=1;startSize=30;horizontalStack=0;resizeParent=1;resizeParentMax=0;resizeLast=0;collapsible=1;marginBottom=0;whiteSpace=wrap;html=1;" vertex="1" parent="1">
          <mxGeometry x="490" y="1270" width="140" height="60" as="geometry" />
        </mxCell>
        <mxCell id="n3agIeLzyx0UOAD5LdYY-71" value="type = btg" style="text;strokeColor=none;fillColor=none;align=left;verticalAlign=middle;spacingLeft=4;spacingRight=4;overflow=hidden;points=[[0,0.5],[1,0.5]];portConstraint=eastwest;rotatable=0;whiteSpace=wrap;html=1;" vertex="1" parent="n3agIeLzyx0UOAD5LdYY-70">
          <mxGeometry y="30" width="140" height="30" as="geometry" />
        </mxCell>
        <mxCell id="n3agIeLzyx0UOAD5LdYY-82" style="edgeStyle=orthogonalEdgeStyle;rounded=0;orthogonalLoop=1;jettySize=auto;html=1;exitX=1;exitY=0.5;exitDx=0;exitDy=0;entryX=0;entryY=0.133;entryDx=0;entryDy=0;entryPerimeter=0;strokeWidth=2;" edge="1" parent="1" source="n3agIeLzyx0UOAD5LdYY-17" target="n3agIeLzyx0UOAD5LdYY-6">
          <mxGeometry relative="1" as="geometry" />
        </mxCell>
        <mxCell id="n3agIeLzyx0UOAD5LdYY-83" style="edgeStyle=orthogonalEdgeStyle;rounded=0;orthogonalLoop=1;jettySize=auto;html=1;exitX=0;exitY=0.5;exitDx=0;exitDy=0;entryX=1;entryY=0.133;entryDx=0;entryDy=0;entryPerimeter=0;strokeWidth=2;" edge="1" parent="1" source="n3agIeLzyx0UOAD5LdYY-16" target="n3agIeLzyx0UOAD5LdYY-2">
          <mxGeometry relative="1" as="geometry" />
        </mxCell>
        <mxCell id="n3agIeLzyx0UOAD5LdYY-96" style="edgeStyle=orthogonalEdgeStyle;rounded=0;orthogonalLoop=1;jettySize=auto;html=1;exitX=1;exitY=0.5;exitDx=0;exitDy=0;strokeWidth=2;entryX=0.99;entryY=0.09;entryDx=0;entryDy=0;entryPerimeter=0;" edge="1" parent="1" source="n3agIeLzyx0UOAD5LdYY-35" target="n3agIeLzyx0UOAD5LdYY-10">
          <mxGeometry relative="1" as="geometry">
            <mxPoint x="800" y="60" as="targetPoint" />
            <Array as="points">
              <mxPoint x="800" y="525" />
              <mxPoint x="800" y="94" />
            </Array>
          </mxGeometry>
        </mxCell>
      </root>
    </mxGraphModel>
  </diagram>
</mxfile>
